PathFileType	4	(X/Y/Z)	C:/Users/opensim2020/Desktop/walking_exp_matlab/subject06_walking21_straight_01_cyclic.trc	
DataRate	CameraRate	NumFrames	NumMarkers	Units	OrigDataRate	OrigDataStartFrame	OrigNumFrames	
100.00	100.00	7	44	mm	100.00	772	102	
Frame#	Time	LFHD			RFHD			LBHD			RBHD			C7			T10			CLAV			STRN			RBAK			LSHO			LUPA			LELB			LFRM			LWRA			LWRB			LFIN			RSHO			RUPA			RELB			RFRM			RWRA			RWRB			RFIN			LASI			RASI			LPSI			RPSI			LTHI			LKNE			LTIB			LANK			LHEE			LTOE			RTHI			RKNE			RTIB			RANK			RHEE			RTOE			*39			*40			*41			*42			*43			
		X1	Y1	Z1	X2	Y2	Z2	X3	Y3	Z3	X4	Y4	Z4	X5	Y5	Z5	X6	Y6	Z6	X7	Y7	Z7	X8	Y8	Z8	X9	Y9	Z9	X10	Y10	Z10	X11	Y11	Z11	X12	Y12	Z12	X13	Y13	Z13	X14	Y14	Z14	X15	Y15	Z15	X16	Y16	Z16	X17	Y17	Z17	X18	Y18	Z18	X19	Y19	Z19	X20	Y20	Z20	X21	Y21	Z21	X22	Y22	Z22	X23	Y23	Z23	X24	Y24	Z24	X25	Y25	Z25	X26	Y26	Z26	X27	Y27	Z27	X28	Y28	Z28	X29	Y29	Z29	X30	Y30	Z30	X31	Y31	Z31	X32	Y32	Z32	X33	Y33	Z33	X34	Y34	Z34	X35	Y35	Z35	X36	Y36	Z36	X37	Y37	Z37	X38	Y38	Z38	X39	Y39	Z39	X40	Y40	Z40	X41	Y41	Z41	X42	Y42	Z42	X43	Y43	Z43	X44	Y44	Z44	

13	0.120	-1027.77466	-809.34479	1659.59998	-899.56116	-824.02216	1639.05884	-1046.76831	-943.63977	1608.41187	-918.66443	-955.30664	1592.97510	-993.92487	-954.77197	1449.93481	-990.38245	-1017.11438	1127.59033	-993.72955	-850.43378	1364.03076	-1006.31073	-826.00055	1185.69373	-917.33221	-1040.32751	1285.29041	-1153.72668	-901.80579	1403.19739	-1225.45959	-900.67957	1202.48083	-1236.38940	-894.16711	1089.51025	-1246.73157	-808.63000	966.77368	-1190.92212	-702.33966	905.57336	-1229.17065	-747.31250	865.97424	-1223.34631	-667.08264	824.38776	-832.10773	-893.71033	1398.48718	-745.93744	-957.86951	1207.85974	-733.26727	-965.27563	1085.87268	-716.20380	-955.32208	966.23633	-748.03833	-897.42792	826.70392	-709.05328	-952.69739	828.55261	-708.58795	-918.07257	751.44922	-1110.54309	-871.08411	948.96600	-892.62219	-844.63495	960.76855	-1068.89465	-1020.49658	989.27881	-903.97406	-995.44019	998.78058	-1162.55298	-949.55701	631.97766	-1149.72778	-936.67413	469.40982	-1117.90723	-1130.43237	322.51617	-1065.26111	-1259.75024	217.13182	-1012.78418	-1287.01086	235.99944	-1080.95764	-1203.66479	82.51614	-831.25177	-866.58044	635.16150	-865.56378	-838.34943	515.33240	-872.06628	-879.55255	250.19070	-924.65851	-896.31781	66.51048	-969.85547	-936.61456	43.13340	-927.01080	-744.64874	34.29763	-978.12195	-916.06506	1695.47192												 
14	0.130	-1028.41785	-798.49512	1661.09277	-899.45673	-812.65582	1640.84070	-1046.55090	-932.52850	1609.76184	-918.34235	-943.91687	1594.67310	-993.15283	-943.68378	1451.45032	-989.46082	-1005.98718	1129.07532	-993.35876	-839.42212	1365.52307	-1005.58398	-815.05255	1187.24219	-916.12512	-1029.05847	1287.01965	-1152.95032	-891.10022	1404.64758	-1224.45117	-891.75311	1203.54590	-1235.53601	-886.60284	1090.72437	-1247.69409	-805.38092	964.56488	-1193.34656	-700.43188	899.20648	-1230.89551	-747.68201	861.34869	-1226.81763	-669.02155	816.86115	-831.54858	-881.95544	1400.12366	-744.90704	-944.61749	1209.11121	-732.38116	-950.87799	1087.08948	-715.75366	-938.82129	967.64862	-748.71558	-879.00421	829.26465	-708.92645	-933.90613	830.11914	-708.94849	-897.65704	753.66479	-1109.74402	-859.36176	950.98590	-891.77271	-834.02411	961.89569	-1068.34290	-1009.13947	990.85571	-903.19232	-984.78131	1000.09235	-1162.23938	-931.32446	633.90942	-1149.25623	-913.66528	471.69757	-1118.62439	-1104.34119	320.81110	-1066.43542	-1232.04248	213.10812	-1014.17279	-1260.56836	231.40437	-1081.28491	-1171.42737	80.93826	-831.23572	-861.26593	635.28357	-864.96143	-834.40875	514.94745	-871.82080	-878.52264	250.15591	-924.74585	-896.37128	66.57993	-969.99561	-936.71613	43.25541	-926.79346	-744.63037	34.16037	-978.05920	-904.73041	1696.94653												 
15	0.140	-1028.16199	-787.10760	1662.07910	-899.53156	-801.13696	1642.13940	-1046.25757	-921.39600	1611.02771	-917.98413	-932.59229	1596.23279	-992.43024	-932.64929	1452.74133	-988.50653	-994.88837	1130.32373	-992.76581	-828.44012	1366.84448	-1005.03094	-804.13593	1188.54651	-914.85834	-1017.81000	1288.55042	-1152.48621	-880.57300	1405.69922	-1223.95947	-882.88403	1204.64880	-1234.82776	-878.99908	1091.75049	-1248.12195	-801.99823	962.74152	-1195.78345	-698.96259	892.93115	-1232.73755	-748.63983	856.81378	-1230.27710	-671.78326	809.36829	-831.04926	-870.40967	1401.60852	-743.90411	-931.38531	1210.23584	-731.49750	-936.51837	1088.16052	-715.22925	-922.38733	968.95343	-749.45148	-860.77307	831.61792	-709.03491	-914.75433	831.46881	-709.31049	-877.24866	755.98749	-1108.87744	-847.59827	952.71478	-890.73938	-822.72522	963.51117	-1067.92493	-997.71216	992.29413	-902.77332	-973.81659	1001.11389	-1162.05737	-913.04456	635.73169	-1148.64526	-890.76703	474.06042	-1119.24463	-1077.69409	318.55356	-1067.74451	-1203.69507	208.19763	-1015.72992	-1233.35828	225.62625	-1082.26343	-1137.83057	79.24491	-831.31116	-855.19568	635.43231	-864.12244	-830.43817	514.60248	-871.70605	-877.65155	250.05322	-925.05731	-896.59332	66.53727	-970.13916	-936.91791	43.31921	-926.45294	-744.81427	34.06641	-978.07428	-893.37689	1698.29395												 
16	0.150	-1028.13550	-775.83221	1663.00659	-899.58759	-789.79883	1643.41992	-1046.00793	-910.33325	1612.10999	-917.67944	-921.21130	1597.56689	-991.72748	-921.71912	1453.81360	-987.50226	-983.88983	1131.40186	-992.56195	-817.44904	1367.93188	-1004.45020	-793.06940	1189.75500	-913.57867	-1006.52319	1289.76233	-1152.18030	-870.59778	1406.51611	-1223.24084	-874.09070	1205.44055	-1234.19971	-871.50043	1092.63062	-1248.90039	-799.14447	960.81842	-1198.34827	-698.35376	886.47736	-1234.56665	-750.07214	852.51465	-1233.78784	-675.26929	802.08771	-830.58362	-858.90717	1402.87256	-743.03394	-918.16852	1211.19800	-730.54718	-922.21533	1089.13550	-714.73145	-905.96179	970.21417	-749.90924	-842.12469	834.22906	-709.06384	-895.52332	832.87762	-709.71686	-856.66998	758.29736	-1107.71790	-835.87866	954.57721	-889.36218	-812.26050	964.10059	-1067.71057	-986.23840	993.59967	-902.23395	-963.22766	1002.10962	-1161.97217	-894.77576	637.61334	-1148.13354	-867.61212	476.53598	-1119.70886	-1050.66541	316.02420	-1069.13293	-1174.23914	202.41205	-1017.32605	-1205.24097	218.70840	-1082.82104	-1103.69312	76.11314	-830.93298	-848.50934	635.81335	-863.40851	-826.21027	514.06659	-871.50568	-876.88904	250.01329	-925.10040	-896.85071	66.60858	-970.26300	-937.04413	43.36168	-926.09857	-745.01959	33.92513	-978.03564	-882.02734	1699.52209												 
17	0.160	-1028.19543	-764.61481	1663.75659	-899.57178	-778.31830	1644.47876	-1045.72876	-899.26093	1613.04871	-917.35303	-909.89435	1598.78296	-991.06165	-910.79071	1454.73303	-986.55212	-972.85120	1132.25684	-992.01001	-806.55200	1368.88098	-1003.91296	-782.10736	1190.78064	-912.28296	-995.36285	1290.72827	-1151.48193	-860.08191	1407.44299	-1222.94641	-865.34515	1206.22986	-1233.73254	-864.26184	1093.32666	-1249.79285	-796.64667	958.96295	-1201.22290	-698.34656	880.03882	-1236.42053	-752.00000	848.43567	-1237.24072	-679.44641	795.06262	-830.16168	-847.51788	1403.98682	-742.04797	-905.21533	1212.08130	-729.53027	-908.19324	1089.94397	-714.08331	-889.67499	971.39386	-750.36469	-823.37714	836.88818	-708.83820	-876.52039	834.49231	-710.00049	-835.93164	760.55035	-1106.57471	-823.93317	956.07324	-888.42456	-801.73846	964.49329	-1067.62866	-974.72504	994.63574	-901.99365	-952.48871	1002.83398	-1162.01282	-876.61774	639.60382	-1147.33289	-845.06104	479.12772	-1120.17358	-1022.97491	313.16949	-1070.66516	-1144.01379	195.82060	-1019.08759	-1176.16956	210.68492	-1084.71045	-1067.82996	73.70087	-830.68982	-841.47156	635.99701	-862.73260	-821.72827	513.62024	-871.23053	-876.17816	250.05942	-925.05023	-897.07794	66.59396	-970.29236	-937.29504	43.44149	-925.71899	-745.12811	33.83252	-977.97968	-870.65363	1700.59985												 
18	0.170	-1028.36157	-753.52246	1664.35071	-899.60168	-766.89716	1645.25195	-1045.47986	-888.23389	1613.83020	-917.06091	-898.55902	1599.79712	-990.49133	-899.90125	1455.48022	-985.68073	-961.76080	1132.92053	-991.67383	-795.71008	1369.69067	-1003.32574	-771.20709	1191.57788	-911.00903	-984.16534	1291.35889	-1151.10779	-849.96783	1408.03223	-1222.67310	-856.90381	1206.74023	-1233.51843	-857.17529	1093.74426	-1250.40881	-794.39856	956.88824	-1203.91797	-698.60309	874.01172	-1238.24695	-754.22168	844.57343	-1240.67847	-684.37097	788.23798	-829.72821	-836.15100	1404.89063	-741.16113	-892.34833	1212.72363	-728.54095	-894.27112	1090.67151	-713.48248	-873.45166	972.52228	-750.84521	-805.09503	839.37555	-708.84393	-857.43854	835.89343	-710.50604	-815.50574	762.92413	-1105.43445	-812.41248	957.18689	-887.25775	-791.06982	964.99127	-1067.64014	-963.15833	995.40033	-901.88617	-941.64337	1003.31134	-1161.99341	-858.27301	641.52020	-1146.46741	-822.70441	481.83063	-1120.83813	-995.66199	310.18353	-1072.20361	-1112.93420	188.52859	-1020.73352	-1146.22034	201.94643	-1085.60730	-1031.87537	70.07072	-830.49292	-834.09070	636.07123	-861.96423	-817.17249	513.10858	-870.67682	-874.95551	250.03314	-924.94312	-897.27130	66.58740	-970.26178	-937.39185	43.44968	-925.20923	-745.27875	33.70694	-977.93433	-859.30444	1701.33545												 
19	0.180	-1028.47949	-742.38617	1664.72461	-899.97858	-755.35864	1645.84290	-1045.20178	-877.20343	1614.44397	-916.75061	-887.20428	1600.57019	-989.90448	-888.97760	1456.06006	-984.85834	-950.81073	1133.39771	-991.40662	-784.82874	1370.35327	-1002.86646	-760.21796	1192.28979	-909.73572	-972.99359	1291.77368	-1150.76440	-840.08893	1408.19434	-1222.22998	-848.48334	1207.05322	-1233.23767	-850.33881	1094.03650	-1251.27417	-792.45667	955.09967	-1206.49231	-699.47449	867.98828	-1240.09497	-756.75250	841.07581	-1243.72253	-689.34943	781.81238	-829.33069	-824.86945	1405.61182	-740.33838	-879.50305	1213.27417	-727.47278	-880.39771	1091.27197	-712.79425	-857.40375	973.58093	-751.20172	-786.59485	842.03210	-708.71857	-838.47430	837.40063	-710.98956	-795.09229	765.41705	-1104.16980	-801.60266	957.67633	-886.16571	-780.54266	965.38287	-1067.66614	-951.51520	995.85736	-901.73328	-930.95984	1003.64587	-1161.90125	-839.83051	643.32007	-1145.51135	-800.62457	484.65579	-1121.44763	-968.15155	307.04349	-1073.80090	-1081.08130	180.77750	-1022.41998	-1115.06372	192.20395	-1088.20837	-994.03375	67.50175	-830.35614	-826.57941	636.08539	-861.36700	-812.48724	512.48462	-870.23584	-873.51318	250.04782	-924.81689	-897.37402	66.59921	-970.09473	-937.54126	43.58770	-924.72614	-745.37909	33.59506	-977.81830	-847.96594	1701.98425												 
